<svg width="47" height="30" viewBox="0 0 47 30" fill="none" xmlns="http://www.w3.org/2000/svg">
<g opacity="0.8">
<path d="M12.7357 13.0088C11.8685 13.0088 11.2038 13.2875 11.2038 13.2875L11.0202 14.3775C11.0202 14.3775 11.5686 14.1546 12.3988 14.1546C12.8701 14.1546 13.2143 14.2071 13.2143 14.5898C13.2143 14.8226 13.1725 14.9086 13.1725 14.9086C13.1725 14.9086 12.8012 14.8783 12.6291 14.8783C11.5349 14.8783 10.3859 15.3438 10.3859 16.7527C10.3859 17.8625 11.1391 18.1157 11.6071 18.1157C12.4996 18.1157 12.8848 17.5371 12.9045 17.5355L12.8627 18.019H13.9766L14.4732 14.5357C14.4724 13.0563 13.1832 13.0088 12.7357 13.0088ZM12.1111 17.056C11.7185 17.056 11.6161 16.7568 11.6161 16.5782C11.6161 16.2323 11.8038 15.8159 12.7308 15.8159C12.9471 15.8168 12.9701 15.8389 13.0061 15.8454C13.0307 16.0585 12.8734 17.056 12.1111 17.056Z" fill="white"/>
<path d="M16.7587 14.1785C16.9365 14.1785 17.6225 14.235 17.6225 14.235L17.7823 13.1187C17.7823 13.1187 17.3381 13.0195 16.6152 13.0195C15.6792 13.0195 14.7301 13.3933 14.7301 14.671C14.7301 16.1201 16.3136 15.9726 16.3136 16.584C16.3136 16.9905 15.871 17.0241 15.5301 17.0241C14.9391 17.0241 14.408 16.8225 14.4064 16.8307L14.2375 17.938C14.2679 17.9462 14.5957 18.0921 15.6571 18.0921C15.9415 18.0921 17.5701 18.1658 17.5701 16.4848C17.5701 14.9128 16.0628 15.2234 16.0628 14.5915C16.0628 14.2768 16.3079 14.1785 16.7587 14.1785Z" fill="white"/>
<path d="M19.4192 14.3183H20.0888L20.2503 13.1283H19.6192L19.7479 12.3906H18.4832C18.4554 12.4177 17.7366 16.5509 17.7366 17.0525C17.7366 17.7992 18.1554 18.1303 18.7447 18.1246C19.2061 18.1213 19.5659 17.9934 19.693 17.9582L19.8512 16.8829C19.7643 16.8829 19.6372 16.9206 19.5249 16.9206C19.0848 16.9206 19.0365 16.6854 19.0643 16.5124L19.4192 14.3183Z" fill="white"/>
<path d="M24.7208 7.41602H22.4636C22.1603 7.82582 21.8751 8.26185 21.6169 8.68804H25.6437C25.3642 8.24382 25.0552 7.81926 24.7208 7.41602Z" fill="white"/>
<path d="M42.3327 21.7244C42.3081 21.6875 42.2876 21.6596 42.2712 21.6424C42.2622 21.6342 42.2507 21.6252 42.236 21.6211C42.2712 21.6186 42.3007 21.6055 42.3221 21.5834C42.3425 21.5613 42.354 21.535 42.354 21.5047C42.354 21.4834 42.3475 21.4629 42.3352 21.4441C42.3229 21.4252 42.3048 21.4113 42.2827 21.4039C42.2622 21.3957 42.227 21.3916 42.1786 21.3916H42.036V21.8055H42.1032V21.6301H42.1417C42.1647 21.6301 42.1835 21.635 42.1942 21.6449C42.2114 21.6588 42.236 21.6908 42.2647 21.7408L42.3007 21.8063H42.3835L42.3327 21.7244ZM42.1835 21.5752H42.1016V21.4506H42.1786C42.2106 21.4506 42.2319 21.4531 42.2442 21.458C42.2573 21.4629 42.2655 21.4703 42.2729 21.4793C42.2794 21.4891 42.2827 21.4998 42.2827 21.5113C42.2827 21.5301 42.2762 21.5465 42.2622 21.558C42.2483 21.5686 42.2212 21.5752 42.1835 21.5752Z" fill="white"/>
<path d="M26.3275 9.93652H20.9123C20.5665 10.5914 20.337 11.0864 20.2722 11.2094H26.8405C26.6922 10.7717 26.5217 10.348 26.3275 9.93652Z" fill="white"/>
<path d="M8.83636 12.001L7.58974 15.6974L7.52499 12.001H5.67924L4.66785 18.0243H5.88824L6.65785 13.4836L6.77095 18.0243H7.64219L9.26747 13.4836L8.54704 18.0243H9.84201L10.8395 12.001H8.83636Z" fill="white"/>
<path d="M33.2413 13.0088C32.3726 13.0088 31.7087 13.2875 31.7087 13.2875L31.5243 14.3775C31.5243 14.3775 32.0734 14.1546 32.9028 14.1546C33.3741 14.1546 33.7192 14.2071 33.7192 14.5898C33.7192 14.8226 33.6757 14.9086 33.6757 14.9086C33.6757 14.9086 33.3053 14.8783 33.1315 14.8783C32.0382 14.8783 30.8899 15.3438 30.8899 16.7527C30.8899 17.8625 31.6439 18.1157 32.1111 18.1157C33.0028 18.1157 33.388 17.5371 33.4085 17.5355L33.3667 18.019H34.4798L34.9764 14.5357C34.9789 13.0563 33.6888 13.0088 33.2413 13.0088ZM32.6184 17.056C32.225 17.056 32.1234 16.7568 32.1234 16.5782C32.1234 16.2323 32.3111 15.8159 33.2381 15.8159C33.4536 15.8168 33.4766 15.8389 33.5134 15.8454C33.5372 16.0585 33.379 17.056 32.6184 17.056Z" fill="white"/>
<path d="M42.3728 17.469C42.3392 17.4067 42.2901 17.3591 42.2286 17.3264C42.1679 17.2928 42.1056 17.2764 42.0401 17.2764C41.977 17.2772 41.9139 17.2936 41.8516 17.3264C41.7901 17.3591 41.7426 17.4067 41.7081 17.469C41.6737 17.5304 41.6565 17.5944 41.6565 17.6608C41.6565 17.7271 41.6737 17.7903 41.7081 17.8509C41.7417 17.9116 41.7893 17.9599 41.8499 17.9943C41.9114 18.0279 41.9745 18.0452 42.0401 18.0452C42.1073 18.0452 42.1712 18.0279 42.231 17.9943C42.2917 17.9599 42.3392 17.9116 42.3728 17.8509C42.4081 17.7903 42.4236 17.7271 42.4236 17.6608C42.4236 17.5927 42.4073 17.5288 42.3728 17.469ZM42.3196 17.8189C42.2917 17.8698 42.2523 17.9083 42.2007 17.9386C42.1499 17.9665 42.0974 17.9812 42.0425 17.9812C41.9868 17.9812 41.9335 17.9665 41.8835 17.9386C41.8319 17.9099 41.7934 17.8706 41.7639 17.8189C41.7344 17.7673 41.7212 17.7149 41.7212 17.6599C41.7212 17.605 41.7352 17.5518 41.7655 17.5001C41.7942 17.4493 41.8327 17.41 41.8852 17.3813C41.9376 17.3526 41.9893 17.3403 42.0425 17.3403C42.0958 17.3403 42.1483 17.3534 42.1983 17.3813C42.2507 17.41 42.2892 17.4485 42.3179 17.5001C42.3466 17.5518 42.3622 17.605 42.3622 17.6599C42.3622 17.7149 42.3482 17.7681 42.3196 17.8189Z" fill="white"/>
<path d="M42.17 17.7927C42.1462 17.7542 42.1249 17.7272 42.1093 17.7108C42.0995 17.7017 42.0888 17.6944 42.0741 17.6894C42.1093 17.687 42.138 17.6739 42.1593 17.6517C42.1798 17.6304 42.1921 17.6026 42.1921 17.5731C42.1921 17.5526 42.1855 17.5313 42.1724 17.5124C42.1593 17.4944 42.1421 17.4805 42.1216 17.4723C42.1011 17.4641 42.065 17.46 42.0167 17.46H41.8724V17.873H41.9396V17.6976H41.9782C42.0019 17.6976 42.0208 17.7026 42.0323 17.7116C42.0495 17.7263 42.0724 17.7575 42.1027 17.8091L42.138 17.8739H42.2208L42.17 17.7927ZM42.0224 17.6411H41.9413V17.5157H42.0167C42.0495 17.5157 42.0708 17.5182 42.0839 17.5223C42.0946 17.528 42.1044 17.5337 42.1109 17.5444C42.1183 17.555 42.1216 17.5641 42.1216 17.578C42.1216 17.596 42.1142 17.6116 42.1019 17.6231C42.0864 17.637 42.0609 17.6411 42.0224 17.6411Z" fill="white"/>
<path d="M37.5392 13.0693C36.9729 13.0693 36.5524 13.8422 36.5524 13.8422L36.6655 13.1316H35.4869L34.6976 18.0345H35.9959C36.3655 15.9396 36.4327 14.2406 37.3105 14.5512C37.4654 13.7414 37.6146 13.4275 37.7826 13.0857C37.7826 13.0865 37.7039 13.0693 37.5392 13.0693Z" fill="white"/>
<path d="M40.801 12.0083L40.5281 13.7008C40.5281 13.7008 40.0527 13.0427 39.3069 13.0427C38.1471 13.0435 37.1816 14.4409 37.1816 16.0457C37.1816 17.0825 37.6972 18.098 38.7495 18.098C39.5077 18.098 39.9273 17.5693 39.9273 17.5693L39.8724 18.0209H41.1026L42.0698 12.0059L40.801 12.0083ZM39.197 16.8686C38.7413 16.8686 38.5283 16.4866 38.5283 15.8867C38.5283 14.9056 38.9684 14.259 39.5249 14.259C39.979 14.2598 40.2125 14.572 40.2125 15.308C40.2125 15.976 39.8822 16.8686 39.197 16.8686Z" fill="white"/>
<path d="M45.5 0H1.5921C0.933134 0 0.400391 0.533562 0.400391 1.19171V28.8083C0.400391 29.4664 0.933134 30 1.5921 30H45.5C46.1589 30 46.6917 29.4664 46.6917 28.8083V1.19171C46.6917 0.533562 46.1589 0 45.5 0ZM42.5355 21.7843C42.501 21.8466 42.4543 21.8941 42.3937 21.9277C42.333 21.9613 42.2691 21.9785 42.2035 21.9785C42.1363 21.9785 42.0724 21.9613 42.0117 21.9277C41.9519 21.8941 41.9044 21.8466 41.8691 21.7843C41.8355 21.7245 41.8183 21.6605 41.8183 21.5941C41.8183 21.5277 41.8355 21.4646 41.8699 21.4023C41.9036 21.3401 41.9527 21.2933 42.0134 21.2597C42.0748 21.2278 42.1371 21.2106 42.2027 21.2106C42.2675 21.2106 42.3297 21.2278 42.3904 21.2597C42.4519 21.2933 42.5002 21.3401 42.5338 21.4023C42.5683 21.4646 42.5846 21.5286 42.5846 21.5941C42.5846 21.6597 42.5699 21.7261 42.5355 21.7843ZM43.3944 15.0004C43.3961 21.5613 38.0801 26.8822 31.5183 26.8839C28.4497 26.8847 25.6516 25.7217 23.5436 23.8112C21.4356 25.7184 18.6432 26.8806 15.5795 26.8806C9.02182 26.8806 3.6993 21.5589 3.6993 15.0004C3.6993 8.46816 8.98002 3.16204 15.5033 3.11942C15.5287 3.11942 15.5541 3.11942 15.5795 3.11942C18.6432 3.11942 21.4364 4.28162 23.5444 6.18884C25.6516 4.2808 28.4465 3.11778 31.5126 3.11696C38.0744 3.1145 43.3944 8.43291 43.3961 14.9947C43.3944 14.9963 43.3944 14.9971 43.3944 15.0004Z" fill="white"/>
<path d="M22.3268 22.5127C22.703 22.9733 23.1013 23.4126 23.5414 23.811C23.5513 23.8019 23.5619 23.7937 23.5718 23.7855C23.5718 23.7855 23.5709 23.7855 23.5709 23.7847H23.5734C24.0062 23.3905 24.4102 22.9659 24.7799 22.5127H22.3268Z" fill="white"/>
<path d="M23.945 15.9923C23.945 15.9923 24.1114 15.1727 24.1114 14.8391C24.1114 14.0056 23.6966 12.9893 22.3082 12.9893C21.0362 12.9901 20.0945 14.3605 20.0945 15.9095C20.0945 17.6971 21.2739 18.1216 22.2795 18.1216C23.2073 18.1216 23.6155 17.9134 23.6155 17.9134L23.8384 16.6939C23.8384 16.6939 23.1328 17.0053 22.4951 17.0053C21.137 17.0053 21.3747 15.9923 21.3747 15.9923H23.945ZM22.3123 14.1244C23.0262 14.1244 22.8943 14.9268 22.8943 14.9907H21.4903C21.4903 14.908 21.623 14.1244 22.3123 14.1244Z" fill="white"/>
<path d="M29.877 13.1566C30.5204 13.1566 31.0376 13.518 31.0376 13.518L31.2441 12.178C31.2441 12.178 30.4786 11.8682 29.8197 11.8682C28.36 11.8682 26.9396 13.1353 26.9396 15.5146C26.9396 17.0923 27.7059 18.134 29.2156 18.134C29.6418 18.134 30.3221 17.9611 30.3221 17.9611L30.5483 16.5809C30.5483 16.5809 29.9287 16.8915 29.5025 16.8915C28.6042 16.8907 28.2444 16.2055 28.2444 15.4711C28.2444 13.977 29.0165 13.1566 29.877 13.1566Z" fill="white"/>
<path d="M20.741 20.0176C20.9467 20.4593 21.186 20.8798 21.4425 21.2896H25.6578C25.9135 20.8814 26.1438 20.4569 26.3495 20.0176H20.741Z" fill="white"/>
<path d="M26.917 13.0714C26.3506 13.0714 25.931 13.8443 25.931 13.8443L26.0449 13.1337H24.8672L24.0779 18.0366H25.3761C25.7441 15.9425 25.813 14.2426 26.6908 14.5533C26.8449 13.7427 26.9932 13.4288 27.1612 13.0862C27.1612 13.0862 27.0826 13.0698 26.917 13.0714Z" fill="white"/>
</g>
</svg>
