<svg width="47" height="30" viewBox="0 0 47 30" fill="none" xmlns="http://www.w3.org/2000/svg">
<g opacity="0.8">
<path d="M10.6349 12.2302C10.4472 12.1072 10.1677 12.0449 9.80055 12.0449L9.48664 12.0466C9.28092 12.0449 9.07028 12.2105 9.03012 12.4105L8.7408 13.6563C8.69572 13.8579 8.8244 14.0226 9.03258 14.0226H9.26699C9.78743 14.0226 10.1907 13.9169 10.48 13.7038C10.7693 13.4923 10.9177 13.1915 10.9111 12.8022C10.9128 12.5449 10.8201 12.3523 10.6349 12.2302Z" fill="white"/>
<path d="M15.757 15.1016C15.7005 15.1032 15.2669 15.1524 15.0472 15.1794C14.8014 15.2147 14.5883 15.2638 14.4153 15.322L14.0088 15.5991C13.9137 15.7187 13.8687 15.8712 13.8687 16.0671L14.0539 16.426C14.1793 16.4965 14.3645 16.531 14.6006 16.531C14.7563 16.531 14.9251 16.4933 15.1022 16.4211L15.4792 16.2269L15.6283 16.0285C15.6874 15.7974 15.8095 15.2835 15.8234 15.2196L15.757 15.1016Z" fill="white"/>
<path d="M45.7998 0H1.8919C1.23294 0 0.700195 0.533562 0.700195 1.19171V28.8075C0.700195 29.4656 1.23294 30 1.8919 30H45.7998C46.4587 30 46.9915 29.4664 46.9915 28.8083V1.19171C46.9915 0.533562 46.4587 0 45.7998 0ZM11.7517 14.5529C11.0993 15.0332 10.1912 15.2725 9.01755 15.2742H8.7438C8.53316 15.2742 8.32744 15.4397 8.284 15.6381L7.95452 17.0625C7.9078 17.2658 7.70208 17.4281 7.4939 17.4281H6.53496C6.32678 17.4281 6.19647 17.2609 6.24564 17.0625L7.59389 11.1917C7.64307 10.9901 7.84715 10.8286 8.05533 10.8253L10.0584 10.8245C10.4912 10.8286 10.8658 10.8548 11.1903 10.9139C11.51 10.9745 11.7886 11.0761 12.0247 11.2204C12.2509 11.363 12.4337 11.554 12.5484 11.7851C12.6763 12.0162 12.7328 12.3055 12.7328 12.6498C12.7328 13.4366 12.4091 14.0726 11.7517 14.5529ZM17.7037 13.8038L17.6677 14.0505L16.9677 17.0765C16.9267 17.2584 16.7464 17.4133 16.5555 17.4355L16.5423 17.4404H16.4038H15.6678H15.6506L15.6473 17.4371C15.4646 17.4199 15.3515 17.265 15.3908 17.0781V17.0765L15.3924 17.0707L15.4285 16.9166L15.4236 16.9109L15.0621 17.1494L14.6687 17.3691L14.2048 17.5281C14.0622 17.5625 13.8614 17.583 13.6024 17.583C13.1934 17.583 12.8508 17.4707 12.5918 17.2388C12.3345 17.0019 12.2017 16.6995 12.2017 16.329C12.2017 15.9356 12.2927 15.6028 12.4755 15.3258C12.6648 15.0504 12.9353 14.8357 13.3008 14.675C13.6409 14.5201 14.0499 14.4054 14.5171 14.3406C14.9941 14.2718 15.3875 14.2218 15.9326 14.1874L16.0702 14.1021L16.0875 13.9669C16.0875 13.7587 15.9907 13.6153 15.7981 13.5309C15.6031 13.4489 15.3097 13.4079 14.9261 13.4079C14.6654 13.4046 14.3376 13.4579 14.027 13.5284C13.7016 13.6022 13.6123 13.6505 13.4532 13.6981C13.3795 13.7235 13.2016 13.7358 13.268 13.4276L13.3852 12.9448C13.3852 12.9448 13.4426 12.5801 13.8073 12.5006C13.9835 12.4613 14.0114 12.4539 14.2991 12.4096C14.6884 12.3498 15.0736 12.3195 15.4596 12.3195C16.2407 12.3195 16.8128 12.4211 17.1743 12.6252C17.5373 12.8285 17.7226 13.1465 17.7209 13.5735L17.7037 13.8038ZM19.2454 19.7656L18.252 19.7672C18.0455 19.7672 17.9775 19.6033 18.1037 19.4017L18.9536 17.9198C18.9536 17.9198 19.0216 17.8354 18.961 17.3519C18.8299 16.4782 18.1775 12.7637 18.1775 12.7637C18.1299 12.5629 18.2578 12.3982 18.4643 12.3982L19.3241 12.3965C19.5872 12.3965 19.7986 12.5695 19.8462 12.7727L20.274 15.3487L20.433 15.3504C20.5666 15.1135 21.9403 12.7563 21.9403 12.7563C22.0714 12.558 22.3369 12.39 22.5435 12.39C22.5435 12.39 23.4672 12.3924 23.6942 12.39C24.0352 12.385 23.668 12.9375 23.668 12.9375L19.8453 19.4017C19.7224 19.6033 19.4503 19.7656 19.2454 19.7656ZM29.1766 14.5783C28.5217 15.0561 27.6095 15.2979 26.4358 15.2979H26.162C25.9555 15.2946 25.749 15.4627 25.7014 15.661L25.3769 17.0879C25.3293 17.2871 25.1195 17.451 24.9162 17.4486L23.9548 17.451C23.7508 17.4518 23.6164 17.2863 23.6655 17.0871L25.0146 11.213C25.0638 11.0139 25.2654 10.8516 25.4736 10.8483L27.4792 10.8467C27.9094 10.8483 28.2881 10.8786 28.6061 10.9352C28.9299 10.9942 29.2085 11.0958 29.4413 11.2409C29.67 11.3876 29.8494 11.5753 29.9691 11.808C30.0921 12.0375 30.1519 12.3277 30.1535 12.6719C30.1535 13.4579 29.8249 14.0923 29.1766 14.5783ZM35.1252 13.8079L35.09 14.0562L34.3884 17.0797C34.3491 17.2625 34.1679 17.4174 33.9794 17.4404L33.9663 17.4453H33.8286C33.6303 17.4453 33.2123 17.4453 33.0918 17.4453H33.0746L33.073 17.4404C32.8869 17.4232 32.7722 17.2691 32.8172 17.0814L32.8156 17.0789L32.8197 17.0756L32.8517 16.9216L32.8459 16.9142L32.4869 17.156L32.0911 17.3748L31.628 17.5313C31.4854 17.5682 31.2838 17.5838 31.0272 17.5879C30.6174 17.5879 30.2781 17.4715 30.0175 17.2412C29.7585 17.0068 29.6249 16.7027 29.6249 16.3306C29.6249 15.9397 29.7159 15.6053 29.8994 15.3299C30.0871 15.0545 30.3617 14.8406 30.724 14.6783C31.0666 14.5226 31.478 14.4095 31.9427 14.3439C32.4165 14.2751 32.8099 14.2251 33.359 14.1915L33.4967 14.1046L33.5114 13.9693C33.5114 13.7628 33.4164 13.6177 33.2213 13.5341C33.0262 13.4514 32.7328 13.4104 32.3509 13.4104C32.0886 13.4087 31.7599 13.4612 31.4501 13.5309C31.1264 13.6063 31.0387 13.653 30.8805 13.7005C30.8002 13.7243 30.6273 13.7382 30.6928 13.43L30.81 12.9481C30.81 12.9481 30.8649 12.5826 31.2313 12.5039C31.4092 12.4654 31.4378 12.4564 31.7247 12.4146C32.1116 12.3523 32.4992 12.3219 32.8853 12.3219C33.6631 12.3219 34.2343 12.4252 34.5991 12.6293C34.9646 12.8326 35.1474 13.1489 35.1474 13.5759L35.1252 13.8079ZM38.1988 11.2614L36.9136 17.0814L36.8685 17.1502C36.7923 17.3142 36.63 17.4469 36.4538 17.4469H35.5621L35.5457 17.4264C35.376 17.4002 35.2654 17.2633 35.3056 17.0847L35.3039 17.0806L35.3424 16.9125L36.544 11.4523L36.5866 11.2622L36.635 11.1876C36.7128 11.027 36.8718 10.8966 37.048 10.8966H37.9062C38.1152 10.8966 38.2406 11.0597 38.1963 11.2597L38.1988 11.2614ZM39.9019 10.6319H39.5806V11.0589L39.5831 11.1737L39.6052 11.2507L39.656 11.2999L39.7544 11.3155L39.8347 11.304L39.8945 11.286H39.9019V11.4261L39.806 11.445L39.715 11.4523L39.497 11.3745L39.4224 11.1286V10.6319H39.3142V10.4991H39.4224V10.2328H39.5806V10.4991H39.9019V10.6319ZM41.4551 10.8278V11.4318H41.3002V10.8991L41.2903 10.7852L41.2698 10.695L41.2157 10.6418L41.1116 10.6229L40.9813 10.6565L40.8477 10.7409L40.8502 10.7868L40.8518 10.836V11.4335H40.6961V10.9007L40.6895 10.7852L40.6674 10.6958L40.615 10.6426L40.5092 10.6237L40.3806 10.6557L40.2502 10.7368V11.4335H40.0962V10.5H40.2502V10.604L40.3994 10.509L40.5535 10.4746L40.7158 10.5131L40.8158 10.6245L40.9879 10.509L41.1559 10.4746L41.3829 10.5672L41.4567 10.8278H41.4551Z" fill="white"/>
<path d="M33.1788 15.1045C33.1222 15.1037 32.6903 15.1545 32.4739 15.1824C32.2256 15.2176 32.0133 15.266 31.842 15.325C31.6666 15.3938 31.524 15.4864 31.4314 15.602C31.3396 15.7217 31.2937 15.8741 31.2937 16.0708L31.4814 16.429C31.6011 16.5003 31.7838 16.5347 32.0272 16.5347C32.1805 16.5347 32.3494 16.497 32.5256 16.4257L32.9001 16.2315L33.0542 16.0331C33.1116 15.7995 33.2362 15.2873 33.246 15.2233L33.1788 15.1045Z" fill="white"/>
<path d="M28.0527 12.2515C27.8634 12.1277 27.588 12.0671 27.22 12.0654L26.9077 12.0671C26.7012 12.0654 26.4914 12.2326 26.4488 12.4318L26.1586 13.6768C26.1119 13.8768 26.2455 14.044 26.4529 14.0423H26.6914C27.2102 14.0423 27.6126 13.9358 27.9027 13.7276C28.1896 13.5137 28.3355 13.2153 28.3338 12.8227C28.3289 12.567 28.2396 12.3744 28.0527 12.2515Z" fill="white"/>
</g>
</svg>
