<svg width="47" height="30" viewBox="0 0 47 30" fill="none" xmlns="http://www.w3.org/2000/svg">
<g opacity="0.8">
<path d="M45.0996 0H1.19171C0.532743 0 0 0.533562 0 1.19171V28.8083C0 29.4664 0.532743 30 1.19171 30H45.0996C45.7586 30 46.2913 29.4664 46.2913 28.8083V1.19171C46.2913 0.533562 45.7586 0 45.0996 0ZM3.58413 9.06565H8.52471C9.19105 9.09106 9.72789 9.30334 9.91312 10.0156L10.9876 15.1832C9.93197 12.4801 7.38792 10.2311 3.54315 9.30006L3.58413 9.06565ZM9.56233 20.8516L6.70847 11.1015C8.75994 12.4146 10.5073 14.498 11.1229 15.9479L11.4556 17.1519L14.5767 9.17794H17.9534L12.935 20.8491L9.56233 20.8516ZM20.4352 20.8598H17.2486L19.241 9.16564H22.4293L20.4352 20.8598ZM25.9807 21.0352C24.5521 21.0204 23.176 20.7376 22.4301 20.4106L22.8785 17.7936L23.2891 17.9797C24.3357 18.4165 25.0135 18.5936 26.2897 18.5936C27.2052 18.5936 28.1862 18.2354 28.1952 17.4518C28.201 16.9396 27.7846 16.5741 26.5437 16.0003C25.334 15.4414 23.7325 14.5037 23.7522 12.8244C23.7694 10.5516 25.9889 8.96566 29.1386 8.96566C30.3729 8.96566 31.3622 9.21974 31.9933 9.4566L31.563 11.9916L31.2753 11.8564C30.6885 11.6204 29.9336 11.3925 28.8903 11.4089C27.6428 11.4089 27.0642 11.9285 27.0642 12.4146C27.0576 12.9621 27.7395 13.3227 28.8542 13.8653C30.6926 14.6996 31.5425 15.7118 31.531 17.042C31.5064 19.4681 29.332 21.0352 25.9807 21.0352ZM39.791 20.8647C39.791 20.8647 39.5 19.5205 39.4033 19.1124C38.9394 19.1124 35.6872 19.1075 35.3217 19.1075C35.1979 19.423 34.6521 20.8647 34.6521 20.8647H31.3056L36.0372 10.1483C36.3733 9.38693 36.9429 9.17794 37.7067 9.17794H40.1688L42.7481 20.8639L39.791 20.8647Z" fill="white"/>
<path d="M38.1455 13.3392L37.9307 12.3311C37.7684 12.7712 37.489 13.4785 37.507 13.4474C37.507 13.4474 36.4997 16.043 36.2374 16.7159H38.8839C38.7561 16.1299 38.1455 13.3392 38.1455 13.3392Z" fill="white"/>
</g>
</svg>
