<svg width="13" height="13" viewBox="0 0 13 13" fill="none" xmlns="http://www.w3.org/2000/svg">
<path opacity="0.8" d="M3.77 0H9.23C11.31 0 13 1.69 13 3.77V9.23C13 10.2299 12.6028 11.1888 11.8958 11.8958C11.1888 12.6028 10.2299 13 9.23 13H3.77C1.69 13 0 11.31 0 9.23V3.77C0 2.77013 0.397195 1.81122 1.10421 1.10421C1.81122 0.397195 2.77013 0 3.77 0ZM3.64 1.3C3.01939 1.3 2.42421 1.54654 1.98537 1.98537C1.54654 2.42421 1.3 3.01939 1.3 3.64V9.36C1.3 10.6535 2.3465 11.7 3.64 11.7H9.36C9.98061 11.7 10.5758 11.4535 11.0146 11.0146C11.4535 10.5758 11.7 9.98061 11.7 9.36V3.64C11.7 2.3465 10.6535 1.3 9.36 1.3H3.64ZM9.9125 2.275C10.128 2.275 10.3347 2.3606 10.487 2.51298C10.6394 2.66535 10.725 2.87201 10.725 3.0875C10.725 3.30299 10.6394 3.50965 10.487 3.66202C10.3347 3.8144 10.128 3.9 9.9125 3.9C9.69701 3.9 9.49035 3.8144 9.33797 3.66202C9.1856 3.50965 9.1 3.30299 9.1 3.0875C9.1 2.87201 9.1856 2.66535 9.33797 2.51298C9.49035 2.3606 9.69701 2.275 9.9125 2.275ZM6.5 3.25C7.36195 3.25 8.1886 3.59241 8.7981 4.2019C9.40759 4.8114 9.75 5.63805 9.75 6.5C9.75 7.36195 9.40759 8.1886 8.7981 8.7981C8.1886 9.40759 7.36195 9.75 6.5 9.75C5.63805 9.75 4.8114 9.40759 4.2019 8.7981C3.59241 8.1886 3.25 7.36195 3.25 6.5C3.25 5.63805 3.59241 4.8114 4.2019 4.2019C4.8114 3.59241 5.63805 3.25 6.5 3.25ZM6.5 4.55C5.98283 4.55 5.48684 4.75545 5.12114 5.12114C4.75545 5.48684 4.55 5.98283 4.55 6.5C4.55 7.01717 4.75545 7.51316 5.12114 7.87886C5.48684 8.24455 5.98283 8.45 6.5 8.45C7.01717 8.45 7.51316 8.24455 7.87886 7.87886C8.24455 7.51316 8.45 7.01717 8.45 6.5C8.45 5.98283 8.24455 5.48684 7.87886 5.12114C7.51316 4.75545 7.01717 4.55 6.5 4.55Z" fill="white"/>
</svg>
