<svg width="14" height="11" viewBox="0 0 14 11" fill="none" xmlns="http://www.w3.org/2000/svg">
<path opacity="0.8" d="M12.25 0H1.75C1.28602 0.00049632 0.841192 0.18503 0.513111 0.513111C0.18503 0.841192 0.00049632 1.28602 0 1.75V9.25C0.00049632 9.71398 0.18503 10.1588 0.513111 10.4869C0.841192 10.815 1.28602 10.9995 1.75 11H12.25C12.714 10.9995 13.1588 10.815 13.4869 10.4869C13.815 10.1588 13.9995 9.71398 14 9.25V1.75C13.9995 1.28602 13.815 0.841192 13.4869 0.513111C13.1588 0.18503 12.714 0.00049632 12.25 0ZM11.8069 2.89469L7.30688 6.39469C7.21912 6.4629 7.11115 6.49994 7 6.49994C6.88885 6.49994 6.78088 6.4629 6.69312 6.39469L2.19313 2.89469C2.14025 2.85476 2.09585 2.80472 2.06248 2.74749C2.02911 2.69025 2.00746 2.62695 1.99877 2.56127C1.99007 2.49559 1.99452 2.42884 2.01185 2.36489C2.02919 2.30094 2.05905 2.24108 2.09972 2.18878C2.14039 2.13647 2.19104 2.09277 2.24874 2.06021C2.30645 2.02766 2.37004 2.00689 2.43584 1.99913C2.50164 1.99136 2.56832 1.99675 2.63201 2.01498C2.69571 2.03321 2.75515 2.06391 2.80687 2.10531L7 5.36656L11.1931 2.10531C11.298 2.02613 11.4298 1.9914 11.56 2.00864C11.6903 2.02587 11.8085 2.09369 11.8892 2.19741C11.9698 2.30114 12.0064 2.43244 11.991 2.56293C11.9756 2.69341 11.9095 2.81259 11.8069 2.89469Z" fill="white"/>
</svg>
