<svg width="14" height="13" viewBox="0 0 14 13" fill="none" xmlns="http://www.w3.org/2000/svg">
<path opacity="0.8" d="M12.9963 10.2594C12.9653 10.0677 12.8451 9.90383 12.6651 9.80649L10.0021 8.2375L9.98021 8.22523C9.86855 8.16935 9.74524 8.1407 9.62038 8.14164C9.39727 8.14164 9.1842 8.22616 9.03633 8.37441L8.25034 9.16076C8.21672 9.19271 8.10712 9.23897 8.07386 9.24064C8.06476 9.2399 7.15933 9.17469 5.49244 7.50761C3.82852 5.84406 3.75793 4.93585 3.75737 4.93585C3.7583 4.8894 3.804 4.78017 3.8365 4.74636L4.50675 4.0763C4.74286 3.83963 4.81364 3.44729 4.67357 3.14337L3.19338 0.35816C3.08582 0.136725 2.87683 0 2.64499 0C2.48096 0 2.32268 0.067991 2.19896 0.191526L0.371938 2.01446C0.196759 2.18871 0.0459155 2.49337 0.0130346 2.73859C-0.00294137 2.85581 -0.327106 5.65384 3.509 9.4905C6.76569 12.7468 9.30513 12.9998 10.0064 12.9998C10.0918 13.0009 10.1772 12.9965 10.262 12.9866C10.5065 12.9539 10.8108 12.8035 10.9848 12.629L12.8104 10.8037C12.9594 10.654 13.0274 10.4561 12.9963 10.2594Z" fill="white"/>
</svg>
