<svg width="16" height="9" viewBox="0 0 16 9" fill="none" xmlns="http://www.w3.org/2000/svg">
<path opacity="0.8" d="M14.8052 0.609478C14.911 0.257856 14.8052 0 14.3046 0H12.6463C12.2243 0 12.0315 0.223072 11.9256 0.468073C11.9256 0.468073 11.0825 2.52411 9.88775 3.85725C9.5021 4.24517 9.32591 4.36767 9.11569 4.36767C9.01058 4.36767 8.85784 4.24517 8.85784 3.89355V0.609478C8.85784 0.187532 8.73609 0 8.38447 0H5.77869C5.51554 0 5.35674 0.195093 5.35674 0.381113C5.35674 0.780373 5.95412 0.872627 6.01537 1.99782V4.43875C6.01537 4.97337 5.91934 5.07091 5.70761 5.07091C5.14577 5.07091 3.77861 3.00731 2.96723 0.645018C2.80919 0.186019 2.64964 0.000756481 2.22618 0.000756481H0.568644C0.094522 0.000756481 0 0.223828 0 0.468829C0 0.908923 0.561838 3.08671 2.61712 5.96698C3.98731 7.93379 5.91631 9 7.67367 9C8.72702 9 8.85708 8.76332 8.85708 8.35498V6.86834C8.85708 6.39498 8.95765 6.2997 9.29112 6.2997C9.53613 6.2997 9.95807 6.42371 10.9419 7.3712C12.0655 8.49487 12.2516 8.99924 12.883 8.99924H14.5405C15.0139 8.99924 15.2505 8.76256 15.1144 8.29524C14.9655 7.8302 14.4286 7.15342 13.7163 6.35263C13.3291 5.8959 12.7506 5.40439 12.5744 5.15863C12.3287 4.84179 12.3998 4.7019 12.5744 4.4206C12.5752 4.42136 14.5949 1.57663 14.8052 0.609478Z" fill="white"/>
</svg>
